<svg
  version="1.1"
  id="Layer_1"
  xmlns="http://www.w3.org/2000/svg"
  xmlnsXlink="http://www.w3.org/1999/xlink"
  x="0px"
  y="0px"
  width="100%"
  viewBox="0 0 423 606"
  enableBackground="new 0 0 423 606"
  xmlSpace="preserve"
>
  <path
    fill="transparent"
    opacity="1.000000"
    stroke="none"
    d="
M198.000000,607.000000 
	C132.015915,607.000000 66.531822,607.000000 1.023864,607.000000 
	C1.023864,405.064972 1.023864,203.129944 1.023864,1.097459 
	C141.900711,1.097459 282.801514,1.097459 423.851166,1.097459 
	C423.851166,202.999908 423.851166,404.999939 423.851166,607.000000 
	C348.796661,607.000000 273.648315,607.000000 198.000000,607.000000 
M253.633301,80.133636 
	C248.191574,86.213554 243.111313,92.669472 237.245712,98.308502 
	C211.429169,123.127853 185.468384,147.798935 159.402527,172.356750 
	C131.393768,198.745041 103.276192,225.018860 75.078529,251.205246 
	C55.457165,269.427032 37.765251,289.178955 23.758957,312.152252 
	C6.839899,339.903076 5.213537,369.095581 15.766429,399.078552 
	C25.688484,427.269226 47.303570,442.810028 75.297356,450.235809 
	C77.779541,450.894257 81.618149,448.876343 83.930862,446.998260 
	C85.935028,445.370789 86.599068,442.138580 87.975800,439.683167 
	C90.556114,435.081116 92.723625,430.133453 95.957367,426.035400 
	C102.969177,417.149567 110.644318,408.791016 117.865326,400.065491 
	C127.431602,388.506134 127.262070,388.509277 118.770248,376.233917 
	C117.054817,373.754150 115.115807,370.453735 115.378258,367.734161 
	C117.631683,344.383789 125.950577,324.004059 144.528748,308.430847 
	C159.839142,295.596832 174.600220,282.104553 189.529572,268.819489 
	C219.515961,242.135757 249.515991,215.466721 279.384430,188.651291 
	C299.178314,170.880600 316.985199,151.331039 331.085754,128.644653 
	C332.719116,126.016754 334.596680,122.886566 334.578064,120.000763 
	C334.503021,108.382080 334.884674,96.575195 332.987793,85.189331 
	C327.910004,54.710674 310.258179,32.116714 285.660461,14.452455 
	C284.467926,13.596063 282.697205,13.544777 281.195740,13.118568 
	C280.931763,14.633310 280.219635,16.228346 280.474365,17.650171 
	C282.618958,29.620819 281.139984,41.154034 274.633514,51.345787 
	C268.380768,61.140118 260.983032,70.203476 253.633301,80.133636 
M193.253479,598.785095 
	C196.519745,596.481934 199.784058,594.175964 203.052643,591.876099 
	C221.031479,579.225525 239.048203,566.627991 256.931122,553.843384 
	C258.628845,552.629700 260.714050,550.022400 260.428101,548.464294 
	C260.078033,546.556824 257.662018,544.663513 255.703644,543.492737 
	C251.721542,541.112061 247.107376,539.700317 243.353012,537.042664 
	C228.816620,526.752563 218.680588,513.531799 219.057083,494.805176 
	C219.440811,475.717255 227.967651,460.162567 242.180557,447.833832 
	C273.252594,420.881073 304.773682,394.441376 335.622467,367.237732 
	C352.841766,352.053070 369.640594,336.298096 385.591034,319.796844 
	C399.070465,305.851959 407.666077,288.811249 408.679352,268.968231 
	C410.141998,240.325287 397.460297,217.094818 379.243744,196.416275 
	C375.844757,192.557877 370.716217,190.135895 366.167206,187.416748 
	C364.076233,186.166870 360.914429,185.788742 361.689301,189.766327 
	C363.826263,200.735367 359.796143,210.127747 354.694489,219.232285 
	C345.995422,234.756851 334.256897,247.967926 322.238495,260.924835 
	C295.888672,289.332275 265.640472,313.495789 236.773331,339.155334 
	C207.523804,365.154755 178.034714,390.884796 148.636383,416.716705 
	C123.829842,438.513794 107.257416,464.686401 104.401833,498.433655 
	C102.501564,520.891052 106.069405,541.893066 119.159546,560.739014 
	C131.561630,578.594421 148.582199,590.828247 167.460495,600.922729 
	C176.355988,605.679382 184.634155,605.323120 193.253479,598.785095 
z"
  />
  <path
    fill="#35A4A0"
    opacity="1.000000"
    stroke="none"
    d="
M253.860855,79.860840 
	C260.983032,70.203476 268.380768,61.140118 274.633514,51.345787 
	C281.139984,41.154034 282.618958,29.620819 280.474365,17.650171 
	C280.219635,16.228346 280.931763,14.633310 281.195740,13.118571 
	C282.697205,13.544777 284.467926,13.596063 285.660461,14.452455 
	C310.258179,32.116714 327.910004,54.710674 332.987793,85.189331 
	C334.884674,96.575195 334.503021,108.382080 334.578064,120.000763 
	C334.596680,122.886566 332.719116,126.016754 331.085754,128.644653 
	C316.985199,151.331039 299.178314,170.880600 279.384430,188.651291 
	C249.515991,215.466721 219.515961,242.135757 189.529572,268.819489 
	C174.600220,282.104553 159.839142,295.596832 144.528748,308.430847 
	C125.950577,324.004059 117.631683,344.383789 115.378258,367.734161 
	C115.115807,370.453735 117.054817,373.754150 118.770248,376.233917 
	C127.262070,388.509277 127.431602,388.506134 117.865326,400.065491 
	C110.644318,408.791016 102.969177,417.149567 95.957367,426.035400 
	C92.723625,430.133453 90.556114,435.081116 87.975800,439.683167 
	C86.599068,442.138580 85.935028,445.370789 83.930862,446.998260 
	C81.618149,448.876343 77.779541,450.894257 75.297356,450.235809 
	C47.303570,442.810028 25.688484,427.269226 15.766429,399.078552 
	C5.213537,369.095581 6.839899,339.903076 23.758957,312.152252 
	C37.765251,289.178955 55.457165,269.427032 75.078529,251.205246 
	C103.276192,225.018860 131.393768,198.745041 159.402527,172.356750 
	C185.468384,147.798935 211.429169,123.127853 237.245712,98.308502 
	C243.111313,92.669472 248.191574,86.213554 253.860855,79.860840 
z"
  />
  <path
    fill="#28829E"
    opacity="1.000000"
    stroke="none"
    d="
M192.949295,598.983398 
	C184.634155,605.323120 176.355988,605.679382 167.460495,600.922729 
	C148.582199,590.828247 131.561630,578.594421 119.159546,560.739014 
	C106.069405,541.893066 102.501564,520.891052 104.401833,498.433655 
	C107.257416,464.686401 123.829842,438.513794 148.636383,416.716705 
	C178.034714,390.884796 207.523804,365.154755 236.773331,339.155334 
	C265.640472,313.495789 295.888672,289.332275 322.238495,260.924835 
	C334.256897,247.967926 345.995422,234.756851 354.694489,219.232285 
	C359.796143,210.127747 363.826263,200.735367 361.689301,189.766327 
	C360.914429,185.788742 364.076233,186.166870 366.167206,187.416748 
	C370.716217,190.135895 375.844757,192.557877 379.243744,196.416275 
	C397.460297,217.094818 410.141998,240.325287 408.679352,268.968231 
	C407.666077,288.811249 399.070465,305.851959 385.591034,319.796844 
	C369.640594,336.298096 352.841766,352.053070 335.622467,367.237732 
	C304.773682,394.441376 273.252594,420.881073 242.180557,447.833832 
	C227.967651,460.162567 219.440811,475.717255 219.057083,494.805176 
	C218.680588,513.531799 228.816620,526.752563 243.353012,537.042664 
	C247.107376,539.700317 251.721542,541.112061 255.703644,543.492737 
	C257.662018,544.663513 260.078033,546.556824 260.428101,548.464294 
	C260.714050,550.022400 258.628845,552.629700 256.931122,553.843384 
	C239.048203,566.627991 221.031479,579.225525 203.052643,591.876099 
	C199.784058,594.175964 196.519745,596.481934 192.949295,598.983398 
z"
  />
</svg>
